<mxfile host="app.diagrams.net" modified="2023-10-28T14:28:03.206Z" agent="Mozilla/5.0 (Windows NT 10.0; Win64; x64) AppleWebKit/537.36 (KHTML, like Gecko) Chrome/118.0.0.0 Safari/537.36" version="22.0.8" etag="jNG4jwhknY5avBtXijJd" type="github">
  <diagram name="Page-1" id="ojXbaIjPnjh7cUJzI9y2">
    <mxGraphModel>
      <root>
        <mxCell id="0" />
        <mxCell id="1" parent="0" />
      </root>
    </mxGraphModel>
  </diagram>
</mxfile>
